<svg width="30" height="30" viewBox="0 0 30 30" fill="none" xmlns="http://www.w3.org/2000/svg">
<path fill-rule="evenodd" clip-rule="evenodd" d="M8.14514 19.3758C8.34707 19.9731 8.02399 20.6201 7.42354 20.8209C5.47921 21.4713 4.44589 23.0947 3.89317 24.7457C3.6737 25.4012 3.5411 26.0323 3.46143 26.5541C3.98606 26.4749 4.62055 26.343 5.27963 26.1247C6.93941 25.5749 8.57161 24.5471 9.22545 22.6132C9.42738 22.016 10.0778 21.6946 10.6783 21.8954C11.2787 22.0963 11.6018 22.7433 11.3999 23.3405C10.4192 26.2412 7.99371 27.6308 6.00444 28.2897C4.99953 28.6225 4.05876 28.7868 3.37209 28.8688C3.02709 28.9099 2.74187 28.9308 2.53925 28.9414C2.43782 28.9467 2.35677 28.9495 2.29891 28.9509C2.26997 28.9516 2.24681 28.952 2.22976 28.9522L2.20882 28.9524L2.20187 28.9524L2.19929 28.9524L2.19822 28.9524C2.19775 28.9524 2.1973 28.9524 2.1973 27.8115C1.05025 27.8115 1.05025 27.8111 1.05026 27.8106L1.05026 27.8095L1.05026 27.807L1.05029 27.8001L1.05049 27.7792C1.05069 27.7623 1.05108 27.7392 1.05179 27.7104C1.05323 27.6529 1.056 27.5723 1.06133 27.4714C1.072 27.2698 1.09298 26.9862 1.13437 26.643C1.21674 25.96 1.38195 25.0243 1.71659 24.0247C2.37902 22.0461 3.77602 19.6335 6.69231 18.6581C7.29277 18.4572 7.94322 18.7786 8.14514 19.3758ZM2.1973 27.8115H1.05025C1.05025 28.4416 1.56381 28.9524 2.1973 28.9524V27.8115Z" fill="#8381D9"/>
<path fill-rule="evenodd" clip-rule="evenodd" d="M27.1874 2.95483C25.856 2.76384 22.5787 2.69189 19.2247 6.02796L10.3002 14.9048L15.1732 19.7517L24.0977 10.8749C27.4517 7.53884 27.3794 4.27912 27.1874 2.95483ZM27.52 0.697102C25.6889 0.433415 21.6073 0.43113 17.6026 4.41446L7.86698 14.098C7.65187 14.312 7.53102 14.6022 7.53102 14.9048C7.53102 15.2074 7.65187 15.4976 7.86698 15.7115L14.3621 22.172C14.8101 22.6175 15.5364 22.6175 15.9843 22.172L25.7199 12.4884C29.7246 8.5051 29.7223 4.44526 29.4572 2.62398C29.3901 2.13654 29.1645 1.68425 28.8146 1.33626C28.4648 0.988277 28.0101 0.76383 27.52 0.697102Z" fill="#8381D9"/>
<path fill-rule="evenodd" clip-rule="evenodd" d="M23.2885 12.1521C23.922 12.1521 24.4356 12.6629 24.4356 13.293V22.506L24.4354 22.5222C24.4269 23.1215 24.1816 23.6932 23.7528 24.114L19.1238 28.7325C18.8299 29.0245 18.4619 29.2316 18.059 29.3318C17.656 29.432 17.2333 29.4215 16.8359 29.3015C16.4385 29.1814 16.0813 28.9563 15.8024 28.6502C15.5238 28.3442 15.3338 27.9689 15.2527 27.564C15.2526 27.5637 15.2528 27.5643 15.2527 27.564L14.0485 21.5893C13.9239 20.9715 14.3265 20.3702 14.9477 20.2464C15.5688 20.1225 16.1733 20.5229 16.2978 21.1408L17.5026 27.1181L22.1415 22.4897V13.293C22.1415 12.6629 22.655 12.1521 23.2885 12.1521Z" fill="#8381D9"/>
<path fill-rule="evenodd" clip-rule="evenodd" d="M7.51469 5.69189L7.53103 5.69177H16.7935C17.4269 5.69177 17.9405 6.20258 17.9405 6.83269C17.9405 7.46281 17.4269 7.97361 16.7935 7.97361H7.54725L7.53798 7.98302L7.53792 7.98297L2.8941 12.5877L2.89588 12.5881L8.90355 13.786C9.52469 13.9099 9.92727 14.5111 9.80275 15.129C9.67822 15.7468 9.07374 16.1472 8.4526 16.0234L2.44672 14.8258C2.44637 14.8257 2.44603 14.8256 2.44568 14.8255C2.03871 14.7449 1.66136 14.5559 1.35382 14.2788C1.04602 14.0014 0.819696 13.6461 0.699 13.2508C0.578304 12.8555 0.567761 12.4351 0.668498 12.0343C0.769235 11.6335 0.977472 11.2674 1.27099 10.9751L1.27271 10.9734L1.27271 10.9734L5.91432 6.37087C6.33737 5.94439 6.91219 5.70042 7.51469 5.69189Z" fill="#8381D9"/>
</svg>
